<svg id="Raggruppa_12" data-name="Raggruppa 12" xmlns="http://www.w3.org/2000/svg" width="41.047" height="32.199" viewBox="0 0 41.047 32.199">
  <path id="Icon_awesome-home" data-name="Icon awesome-home" d="M19.715,8.171,6.751,18.848V30.371A1.125,1.125,0,0,0,7.876,31.5l7.879-.02a1.125,1.125,0,0,0,1.119-1.125v-6.73A1.125,1.125,0,0,1,18,22.5h4.5a1.125,1.125,0,0,1,1.125,1.125v6.725a1.125,1.125,0,0,0,1.125,1.129l7.876.022a1.125,1.125,0,0,0,1.125-1.125V18.84L20.79,8.171A.857.857,0,0,0,19.715,8.171Zm20.477,7.257-5.878-4.845V.844A.844.844,0,0,0,33.47,0H29.532a.844.844,0,0,0-.844.844V5.949L22.393.77A3.375,3.375,0,0,0,18.1.77L.306,15.428a.844.844,0,0,0-.112,1.188L1.987,18.8a.844.844,0,0,0,1.189.115L19.715,5.288a.857.857,0,0,1,1.076,0L37.33,18.911a.844.844,0,0,0,1.188-.112l1.793-2.18a.844.844,0,0,0-.12-1.19Z" transform="matrix(1, -0.017, 0.017, 1, 0, 0.707)" fill="#fff"/>
</svg>