<svg xmlns="http://www.w3.org/2000/svg" width="33.158" height="33.161" viewBox="0 0 33.158 33.161">
  <path id="icons8-settings" d="M34.556,15.856l-4.26-.7a12.207,12.207,0,0,0-1.017-2.455l2.487-3.545a.722.722,0,0,0-.081-.924l-2.8-2.8a.721.721,0,0,0-.931-.075L24.459,7.869A12.092,12.092,0,0,0,21.985,6.84L21.242,2.6a.721.721,0,0,0-.71-.6H16.567a.721.721,0,0,0-.712.6l-.689,4.22a12.145,12.145,0,0,0-2.478,1.018L9.207,5.356a.721.721,0,0,0-.929.076l-2.8,2.8a.72.72,0,0,0-.081.923l2.45,3.506a12.21,12.21,0,0,0-1.037,2.494l-4.2.7a.721.721,0,0,0-.6.711v3.965a.721.721,0,0,0,.595.71l4.2.745a12.149,12.149,0,0,0,1.037,2.494l-2.481,3.47a.722.722,0,0,0,.076.929l2.8,2.805a.721.721,0,0,0,.923.081l3.511-2.459a12.163,12.163,0,0,0,2.483,1.027l.7,4.225a.719.719,0,0,0,.71.6h3.965a.72.72,0,0,0,.709-.595l.753-4.246a12.123,12.123,0,0,0,2.473-1.034L28,31.767a.72.72,0,0,0,.924-.08l2.8-2.805a.722.722,0,0,0,.075-.931l-2.522-3.5A12.067,12.067,0,0,0,30.3,21.992l4.266-.749a.721.721,0,0,0,.6-.71V16.568A.72.72,0,0,0,34.556,15.856ZM18.581,23.627a5.046,5.046,0,1,1,5.046-5.046A5.046,5.046,0,0,1,18.581,23.627Z" transform="translate(-2.002 -2)" fill="#fff"/>
</svg>